<svg width="224" height="114" viewBox="0 0 224 114" fill="none" xmlns="http://www.w3.org/2000/svg">
<ellipse cx="112" cy="57" rx="112" ry="57" fill="#0000FF"/>
<path d="M218.5 57C218.5 71.0605 206.757 83.9329 187.442 93.3198C168.16 102.69 141.488 108.5 112 108.5C82.5116 108.5 55.8395 102.69 36.5581 93.3198C17.2426 83.9329 5.5 71.0605 5.5 57C5.5 42.9395 17.2426 30.0671 36.5581 20.6802C55.8395 11.3098 82.5116 5.5 112 5.5C141.488 5.5 168.16 11.3098 187.442 20.6802C206.757 30.0671 218.5 42.9395 218.5 57Z" fill="#0000FF" stroke="#FFD700"/>
<path d="M145.907 49.5689C145.155 48.8592 144.476 48.1466 144.072 47.1733C143.769 46.4434 143.679 45.6743 143.679 44.8937C143.679 42.0187 143.679 39.1437 143.679 36.2688C143.679 36.234 143.679 36.2007 143.679 36.1659C143.769 36.1659 143.859 36.1659 143.949 36.1659C144.061 36.1659 144.146 36.1254 144.207 36.0645L144.217 36.0544L144.227 36.0443C144.288 35.9834 144.329 35.8994 144.329 35.7879C144.329 33.3286 144.329 30.8708 144.329 28.413C144.329 28.2073 144.156 28.0349 143.949 28.0349C143.648 28.0349 143.346 28.0349 143.045 28.0349L143.574 26H142.892H141.196H139.501H138.818L139.209 27.5048L139.208 27.5135V27.528C139.208 27.5599 139.218 27.5845 139.235 27.6033L139.347 28.0349C139.051 28.0349 138.755 28.0349 138.459 28.0349C138.252 28.0349 138.08 28.2073 138.08 28.413C138.08 30.8708 138.08 33.3286 138.08 35.7879C138.08 35.9936 138.252 36.1659 138.459 36.1659C138.55 36.1659 138.64 36.1659 138.73 36.1659C138.73 38.7194 138.73 41.2728 138.73 43.8277C138.73 44.2506 138.73 44.6721 138.73 45.095C138.73 46.2377 138.386 47.3051 137.745 48.2509C136.74 49.7326 134.974 50.519 134.295 52.2541C133.783 53.562 134.002 54.9336 134.097 56.2935C134.213 57.9722 134.33 59.6508 134.446 61.3295C134.538 62.6619 134.504 63.9988 135.802 64.8069C136.4 65.1806 137.09 65.1487 137.764 65.1487C138.595 65.1487 139.427 65.1487 140.259 65.1487C140.574 65.1487 140.889 65.1487 141.204 65.1487C142.508 65.1487 143.813 65.1487 145.117 65.1487C146.747 65.1487 147.773 64.064 147.882 62.4867C148.07 59.7797 148.258 57.0727 148.445 54.3673C148.522 53.2694 148.213 52.1948 147.591 51.2895C147.141 50.6363 146.48 50.1091 145.907 49.5689" fill="#FFD700"/>
<path d="M38 42.9545H49.8373L52.915 46.2097V51.5365L51.317 53.2233L53.5069 55.502V61.8941L50.4292 65.1494H38V62.7819H40.0715V45.3219H38V42.9545ZM42.7941 54.6142V62.6044H49.2454L50.9618 60.8584V56.5378L49.0975 54.6142H42.7941ZM42.7941 45.4995V52.2467H48.6536L50.37 50.5007V47.2455L48.6832 45.4995H42.7941Z" fill="#FFD700"/>
<path d="M58.2298 45.9138H65.3913V48.2813H63.0239V62.7819H69.4752V59.3491H71.7243V65.1494H58.2298V62.7819H60.3013V48.2813H58.2298V45.9138Z" fill="#FFD700"/>
<path d="M85.564 45.9138H92.1337V48.2813H90.3581V61.8941L87.2804 65.1494H79.231L76.1533 61.8941V48.2813H74.3777V45.9138H80.9474V48.2813H78.8759V61.0359L80.3852 62.6044H86.0967L87.6355 61.0359V48.2813H85.564V45.9138Z" fill="#FFD700"/>
<path d="M96.5796 45.9138H110.666V51.7141H108.299V48.2813H101.374V54.3479H108.299V56.7153H101.374V62.7819H108.299V59.3491H110.666V65.1494H96.5796V62.7819H98.6511V48.2813H96.5796V45.9138Z" fill="#FFD700"/>
<path d="M126.639 58.1654H129.006V61.8941L125.928 65.1494H118.471L115.393 61.8941V46.2097L118.471 42.9545H125.928L129.006 46.2097V49.9385H126.639V47.423L124.774 45.4995H119.655L118.116 47.0679V61.0359L119.625 62.6044H124.745L126.639 60.6808V58.1654Z" fill="#FFD700"/>
<path d="M164.365 65.1494H155.724V62.7819H158.683V48.2813H154.599V51.7141H152.35V45.9138H167.739V51.7141H165.49V48.2813H161.406V62.7819H164.365V65.1494Z" fill="#FFD700"/>
<path d="M181.65 65.1494H173.6V62.7819H176.264V59.1124L171.115 48.2813H169.221V45.9138H175.494V48.2813H173.719L177.596 56.4786L181.502 48.2813H179.726V45.9138H186V48.2813H184.106L178.986 59.0532V62.7819H181.65V65.1494Z" fill="#FFD700"/>
<path d="M41.449 76.3666H38.9684V75.6875H39.8179V71.528H38.6456V72.5127H38V70.8489H42.4174V72.5127H41.7718V71.528H40.5995V75.6875H41.449V76.3666Z" fill="#FFD700"/>
<path d="M44.8307 76.3666L43.9472 75.4329V71.7827L44.8307 70.8489H47.2263L48.1098 71.7827V75.4329L47.2263 76.3666H44.8307ZM45.162 75.6366H46.8865L47.3282 75.1867V72.0288L46.895 71.5789H45.1705L44.7288 72.0288V75.1867L45.162 75.6366Z" fill="#FFD700"/>
<path d="M50.067 70.8489H53.6859L54.5694 71.7827V75.4329L53.6859 76.3666H50.067V75.6875H50.6616V71.528H50.067V70.8489ZM51.4432 75.6366H53.3461L53.7878 75.1867V72.0288L53.3546 71.5789H51.4432V75.6366Z" fill="#FFD700"/>
<path d="M59.5002 76.3666V75.6875H60.0608L59.6955 74.6349H57.5718L57.2065 75.6875H57.7757V76.3666H55.9747V75.6875H56.4249L57.8606 71.528H57.5038V70.8489H59.772V71.528H59.4067L60.8424 75.6875H61.3011V76.3666H59.5002ZM58.6337 71.5535L57.8011 73.9558H59.4662L58.6337 71.5535Z" fill="#FFD700"/>
<path d="M65.1656 76.3666H62.855V75.6875H63.6195V74.6349L62.1414 71.528H61.5977V70.8489H63.3987V71.528H62.889L64.0018 73.8794L65.1232 71.528H64.6135V70.8489H66.4144V71.528H65.8707L64.4011 74.6179V75.6875H65.1656V76.3666Z" fill="#FFD700"/>
<path d="M71.1719 75.348H72.0214V76.3666H71.1719V75.348Z" fill="#FFD700"/>
<path d="M80.311 76.3666H77.8304V75.6875H78.6799V71.528H77.5076V72.5127H76.8619V70.8489H81.2794V72.5127H80.6338V71.528H79.4614V75.6875H80.311V76.3666Z" fill="#FFD700"/>
<path d="M83.6926 76.3666L82.8092 75.4329V71.7827L83.6926 70.8489H86.0883L86.9717 71.7827V75.4329L86.0883 76.3666H83.6926ZM84.024 75.6366H85.7485L86.1902 75.1867V72.0288L85.757 71.5789H84.0325L83.5907 72.0288V75.1867L84.024 75.6366Z" fill="#FFD700"/>
<path d="M90.3051 75.6875H90.8998V76.3666H88.9289V75.6875H89.5236V71.528H88.9289V70.8489H90.6619L92.2675 74.8641L93.8731 70.8489H95.6061V71.528H95.0114V75.6875H95.6061V76.3666H93.6352V75.6875H94.2299V71.8081L92.6413 75.6875H91.8937L90.3051 71.8081V75.6875Z" fill="#FFD700"/>
<path d="M98.4459 76.3666L97.5624 75.4329V71.7827L98.4459 70.8489H100.841L101.725 71.7827V75.4329L100.841 76.3666H98.4459ZM98.7772 75.6366H100.502L100.943 75.1867V72.0288L100.51 71.5789H98.7857L98.3439 72.0288V75.1867L98.7772 75.6366Z" fill="#FFD700"/>
<path d="M103.682 70.8489H107.08L107.964 71.7827V73.4804L107.106 74.3802L107.896 75.6875H108.346V76.3666H106.834V75.6875H107.072L106.307 74.4142H105.058V75.6875H105.568V76.3666H103.682V75.6875H104.277V71.528H103.682V70.8489ZM105.058 71.5789V73.6842H106.74L107.233 73.1833V72.0798L106.749 71.5789H105.058Z" fill="#FFD700"/>
<path d="M110.217 70.8489H113.615L114.498 71.7827V73.4804L113.64 74.3802L114.43 75.6875H114.881V76.3666H113.368V75.6875H113.606L112.842 74.4142H111.593V75.6875H112.103V76.3666H110.217V75.6875H110.811V71.528H110.217V70.8489ZM111.593 71.5789V73.6842H113.275L113.768 73.1833V72.0798L113.283 71.5789H111.593Z" fill="#FFD700"/>
<path d="M117.635 76.3666L116.751 75.4329V71.7827L117.635 70.8489H120.03L120.914 71.7827V75.4329L120.03 76.3666H117.635ZM117.966 75.6366H119.691L120.132 75.1867V72.0288L119.699 71.5789H117.975L117.533 72.0288V75.1867L117.966 75.6366Z" fill="#FFD700"/>
<path d="M122.361 71.528V70.8489H124.162V71.528H123.568L124.765 75.5602L125.972 71.528H125.632V70.8489H127.467V71.528H127.127L128.325 75.5602L129.531 71.528H128.937V70.8489H130.737V71.528H130.313L128.869 76.3666H127.824L126.549 72.0967L125.275 76.3666H124.23L122.786 71.528H122.361Z" fill="#FFD700"/>
<path d="M135.495 75.348H136.344V76.3666H135.495V75.348Z" fill="#FFD700"/>
<path d="M141.609 70H145.653V71.6638H144.973V70.6791H142.986V72.8438H144.973V73.5229H142.986V75.6875H143.665V76.3666H141.609V75.6875H142.204V70.6791H141.609V70Z" fill="#FFD700"/>
<path d="M148.148 76.3666L147.265 75.4329V71.7827L148.148 70.8489H150.544L151.427 71.7827V75.4329L150.544 76.3666H148.148ZM148.479 75.6366H150.204L150.646 75.1867V72.0288L150.212 71.5789H148.488L148.046 72.0288V75.1867L148.479 75.6366Z" fill="#FFD700"/>
<path d="M153.384 70.8489H156.782L157.666 71.7827V73.4804L156.808 74.3802L157.598 75.6875H158.048V76.3666H156.536V75.6875H156.774L156.009 74.4142H154.76V75.6875H155.27V76.3666H153.384V75.6875H153.979V71.528H153.384V70.8489ZM154.76 71.5789V73.6842H156.442L156.935 73.1833V72.0798L156.451 71.5789H154.76Z" fill="#FFD700"/>
<path d="M159.919 70.8489H163.962V72.5127H163.283V71.528H161.295V73.2682H163.283V73.9473H161.295V75.6875H163.283V74.7028H163.962V76.3666H159.919V75.6875H160.513V71.528H159.919V70.8489Z" fill="#FFD700"/>
<path d="M165.404 71.528V70.8489H167.205V71.528H166.653L168.148 75.696L169.652 71.528H169.1V70.8489H170.901V71.528H170.434L168.692 76.3666H167.613L165.872 71.528H165.404Z" fill="#FFD700"/>
<path d="M172.341 70.8489H176.385V72.5127H175.705V71.528H173.717V73.2682H175.705V73.9473H173.717V75.6875H175.705V74.7028H176.385V76.3666H172.341V75.6875H172.936V71.528H172.341V70.8489Z" fill="#FFD700"/>
<path d="M178.336 70.8489H181.734L182.618 71.7827V73.4804L181.76 74.3802L182.55 75.6875H183V76.3666H181.488V75.6875H181.726L180.961 74.4142H179.712V75.6875H180.222V76.3666H178.336V75.6875H178.931V71.528H178.336V70.8489ZM179.712 71.5789V73.6842H181.394L181.887 73.1833V72.0798L181.403 71.5789H179.712Z" fill="#FFD700"/>
</svg>
